# xmcd
#
# Track frame offsets:
#	150
#	26983
#	68134
#	104380
#	133705
#
# Disc length: 2213 seconds
#
# Revision: 0
# Processed by: cddbd v1.5.2PL0 Copyright (c) Steve Scherf et al.
# Submitted via: EasyCDDAExtractor 10.0.2.1
#
DISCID=4408a305
DTITLE=Black Sabbath - Deer Creek Noblesville IN 29-06-99 Master and Source 2 Di
DTITLE=sc 2
DYEAR=1999
DGENRE=Hard Rock
TTITLE0=Snowblind
TTITLE1=Black Sabbath
TTITLE2=Iron Man
TTITLE3=Children Of The Grave
TTITLE4=Supernaut - Paranoid
EXTD=
EXTT0=
EXTT1=
EXTT2=
EXTT3=
EXTT4=
PLAYORDER=
